<svg xmlns="http://www.w3.org/2000/svg" viewBox="0 0 1440 2800" width="1440" height="2800">
  <defs>
    <style>
      @import url('https://fonts.googleapis.com/css2?family=Inter:wght@400;500;600;700;800;900&amp;display=swap');
      text { font-family: 'Inter', -apple-system, sans-serif; }
    </style>
    <linearGradient id="heroGrad" x1="0%" y1="0%" x2="100%" y2="100%">
      <stop offset="0%" style="stop-color:#0f172a"/>
      <stop offset="100%" style="stop-color:#1e293b"/>
    </linearGradient>
    <linearGradient id="upiGrad" x1="0%" y1="100%" x2="0%" y2="0%">
      <stop offset="0%" style="stop-color:#3b82f6;stop-opacity:0.1"/>
      <stop offset="100%" style="stop-color:#3b82f6;stop-opacity:0.4"/>
    </linearGradient>
    <linearGradient id="cardGrad1" x1="0%" y1="0%" x2="100%" y2="100%">
      <stop offset="0%" style="stop-color:#1e3a5f"/>
      <stop offset="100%" style="stop-color:#0f172a"/>
    </linearGradient>
    <linearGradient id="cardGrad2" x1="0%" y1="0%" x2="100%" y2="100%">
      <stop offset="0%" style="stop-color:#1a2e1a"/>
      <stop offset="100%" style="stop-color:#0f172a"/>
    </linearGradient>
    <linearGradient id="cardGrad3" x1="0%" y1="0%" x2="100%" y2="100%">
      <stop offset="0%" style="stop-color:#3a1e1e"/>
      <stop offset="100%" style="stop-color:#0f172a"/>
    </linearGradient>
    <linearGradient id="cardGrad4" x1="0%" y1="0%" x2="100%" y2="100%">
      <stop offset="0%" style="stop-color:#2d1e3a"/>
      <stop offset="100%" style="stop-color:#0f172a"/>
    </linearGradient>
  </defs>

  <!-- Full page background -->
  <rect width="1440" height="2800" fill="#fafafa"/>

  <!-- ==================== HERO SECTION ==================== -->
  <rect width="1440" height="620" fill="url(#heroGrad)"/>

  <!-- Nav bar -->
  <text x="80" y="52" font-size="20" font-weight="800" fill="#ffffff" letter-spacing="-0.5">India in Charts</text>
  <text x="1060" y="52" font-size="14" font-weight="500" fill="#94a3b8">Stories</text>
  <text x="1150" y="52" font-size="14" font-weight="500" fill="#94a3b8">Data</text>
  <text x="1220" y="52" font-size="14" font-weight="500" fill="#94a3b8">About</text>
  <rect x="1300" y="36" width="60" height="28" rx="14" fill="#3b82f6" opacity="0.9"/>
  <text x="1312" y="54" font-size="12" font-weight="600" fill="#ffffff">GitHub</text>

  <!-- Thin separator line -->
  <line x1="80" y1="72" x2="1360" y2="72" stroke="#334155" stroke-width="1"/>

  <!-- Hero headline -->
  <text x="80" y="180" font-size="56" font-weight="900" fill="#ffffff" letter-spacing="-2">The Indian Economy,</text>
  <text x="80" y="245" font-size="56" font-weight="900" fill="#ffffff" letter-spacing="-2">Visualized.</text>

  <!-- Subtitle -->
  <text x="80" y="300" font-size="20" font-weight="400" fill="#94a3b8">Beautiful, interactive charts from official Reserve Bank of India data.</text>
  <text x="80" y="330" font-size="20" font-weight="400" fill="#94a3b8">Updated automatically. Free forever.</text>

  <!-- Hero mini chart - stylized UPI growth line -->
  <g transform="translate(750, 100)">
    <!-- Faint grid -->
    <line x1="0" y1="0" x2="600" y2="0" stroke="#334155" stroke-width="0.5" opacity="0.5"/>
    <line x1="0" y1="100" x2="600" y2="100" stroke="#334155" stroke-width="0.5" opacity="0.5"/>
    <line x1="0" y1="200" x2="600" y2="200" stroke="#334155" stroke-width="0.5" opacity="0.5"/>
    <line x1="0" y1="300" x2="600" y2="300" stroke="#334155" stroke-width="0.5" opacity="0.5"/>
    <line x1="0" y1="400" x2="600" y2="400" stroke="#334155" stroke-width="0.5" opacity="0.5"/>

    <!-- Area fill -->
    <path d="M 0,400 L 0,390 60,385 120,375 180,360 240,340 300,300 360,240 420,170 480,90 540,30 600,0 600,400 Z" fill="url(#upiGrad)"/>

    <!-- Line -->
    <path d="M 0,390 L 60,385 120,375 180,360 240,340 300,300 360,240 420,170 480,90 540,30 600,0" stroke="#3b82f6" stroke-width="3" fill="none"/>

    <!-- Glow dot at end -->
    <circle cx="600" cy="0" r="6" fill="#3b82f6"/>
    <circle cx="600" cy="0" r="12" fill="#3b82f6" opacity="0.2"/>

    <!-- Labels -->
    <text x="0" y="420" font-size="11" fill="#64748b">2016</text>
    <text x="570" y="420" font-size="11" fill="#64748b">2026</text>
    <text x="540" y="-15" font-size="13" font-weight="600" fill="#3b82f6">16.6B txns</text>
  </g>

  <!-- Featured stat pills -->
  <g transform="translate(80, 400)">
    <rect x="0" y="0" width="180" height="70" rx="12" fill="#1e293b" stroke="#334155" stroke-width="1"/>
    <text x="20" y="28" font-size="11" font-weight="500" fill="#64748b" text-transform="uppercase" letter-spacing="1">UPI MONTHLY</text>
    <text x="20" y="54" font-size="24" font-weight="800" fill="#3b82f6">16.6B</text>

    <rect x="200" y="0" width="180" height="70" rx="12" fill="#1e293b" stroke="#334155" stroke-width="1"/>
    <text x="220" y="28" font-size="11" font-weight="500" fill="#64748b" letter-spacing="1">FX RESERVES</text>
    <text x="220" y="54" font-size="24" font-weight="800" fill="#10b981">$688B</text>

    <rect x="400" y="0" width="180" height="70" rx="12" fill="#1e293b" stroke="#334155" stroke-width="1"/>
    <text x="420" y="28" font-size="11" font-weight="500" fill="#64748b" letter-spacing="1">CREDIT CARDS</text>
    <text x="420" y="54" font-size="24" font-weight="800" fill="#f59e0b">110M</text>

    <rect x="600" y="0" width="220" height="70" rx="12" fill="#1e293b" stroke="#334155" stroke-width="1"/>
    <text x="620" y="28" font-size="11" font-weight="500" fill="#64748b" letter-spacing="1">HOUSEHOLD SAVINGS</text>
    <text x="620" y="54" font-size="24" font-weight="800" fill="#ef4444">5.3% GDP</text>
  </g>

  <!-- Scroll indicator -->
  <text x="700" y="590" font-size="13" font-weight="500" fill="#64748b" text-anchor="middle">Scroll to explore stories</text>
  <path d="M 700,600 L 694,607 700,614 706,607 Z" fill="#64748b" opacity="0.5"/>

  <!-- ==================== STORIES SECTION ==================== -->
  <!-- Section header -->
  <text x="80" y="700" font-size="13" font-weight="600" fill="#3b82f6" letter-spacing="2">FEATURED STORIES</text>
  <text x="80" y="740" font-size="36" font-weight="800" fill="#0f172a" letter-spacing="-1">India's Payments Revolution</text>
  <text x="80" y="770" font-size="16" fill="#64748b">How a billion people went from cash to QR codes in under a decade.</text>

  <!-- ==================== STORY CARDS - ROW 1 ==================== -->
  <!-- Card 1: The UPI Explosion (LARGE - featured) -->
  <g transform="translate(80, 810)">
    <rect width="820" height="440" rx="16" fill="url(#cardGrad1)"/>

    <!-- Mini sparkline chart inside card -->
    <g transform="translate(40, 100)">
      <path d="M 0,280 L 80,275 160,265 240,245 320,210 400,160 480,100 560,45 640,5 700,0" stroke="#3b82f6" stroke-width="2.5" fill="none" opacity="0.7"/>
      <path d="M 0,280 L 80,275 160,265 240,245 320,210 400,160 480,100 560,45 640,5 700,0 700,280 Z" fill="#3b82f6" opacity="0.06"/>
      <!-- Year labels -->
      <text x="0" y="300" font-size="11" fill="#475569">2016</text>
      <text x="340" y="300" font-size="11" fill="#475569">2020</text>
      <text x="670" y="300" font-size="11" fill="#475569">2026</text>
    </g>

    <!-- Category pill -->
    <rect x="40" y="30" width="80" height="26" rx="13" fill="#3b82f6" opacity="0.2"/>
    <text x="56" y="48" font-size="11" font-weight="600" fill="#60a5fa">Payments</text>

    <!-- Title -->
    <text x="40" y="80" font-size="28" font-weight="800" fill="#ffffff" letter-spacing="-0.5">The UPI Explosion</text>

    <!-- Bottom bar -->
    <text x="40" y="420" font-size="13" fill="#64748b">0 to 16 billion transactions per month. The fastest payment revolution in history.</text>
  </g>

  <!-- Card 2: The Death of Cash -->
  <g transform="translate(920, 810)">
    <rect width="440" height="210" rx="16" fill="url(#cardGrad2)"/>
    <rect x="30" y="24" width="56" height="26" rx="13" fill="#10b981" opacity="0.2"/>
    <text x="40" y="42" font-size="11" font-weight="600" fill="#34d399">Trends</text>
    <text x="30" y="80" font-size="22" font-weight="800" fill="#ffffff" letter-spacing="-0.5">The Death of Cash</text>
    <text x="30" y="110" font-size="13" fill="#64748b">Digital vs paper payment share</text>
    <text x="30" y="130" font-size="13" fill="#64748b">over 20 years.</text>
    <!-- Mini bar chart -->
    <rect x="30" y="155" width="60" height="30" rx="3" fill="#10b981" opacity="0.3"/>
    <rect x="100" y="145" width="60" height="40" rx="3" fill="#10b981" opacity="0.4"/>
    <rect x="170" y="130" width="60" height="55" rx="3" fill="#10b981" opacity="0.5"/>
    <rect x="240" y="110" width="60" height="75" rx="3" fill="#10b981" opacity="0.6"/>
    <rect x="310" y="85" width="60" height="100" rx="3" fill="#10b981" opacity="0.8"/>
  </g>

  <!-- Card 3: Credit Card Wars -->
  <g transform="translate(920, 1040)">
    <rect width="440" height="210" rx="16" fill="url(#cardGrad3)"/>
    <rect x="30" y="24" width="88" height="26" rx="13" fill="#f59e0b" opacity="0.2"/>
    <text x="40" y="42" font-size="11" font-weight="600" fill="#fbbf24">Competition</text>
    <text x="30" y="80" font-size="22" font-weight="800" fill="#ffffff" letter-spacing="-0.5">Credit Card Wars</text>
    <text x="30" y="110" font-size="13" fill="#64748b">SBI vs HDFC vs ICICI vs Axis.</text>
    <text x="30" y="130" font-size="13" fill="#64748b">A 20-year bar chart race.</text>
    <!-- Racing bars -->
    <rect x="30" y="150" width="340" height="12" rx="3" fill="#ef4444" opacity="0.6"/>
    <rect x="30" y="168" width="280" height="12" rx="3" fill="#3b82f6" opacity="0.6"/>
    <rect x="30" y="186" width="200" height="12" rx="3" fill="#f59e0b" opacity="0.6"/>
    <text x="380" y="161" font-size="10" fill="#94a3b8">HDFC</text>
    <text x="320" y="179" font-size="10" fill="#94a3b8">SBI</text>
    <text x="240" y="197" font-size="10" fill="#94a3b8">ICICI</text>
  </g>

  <!-- ==================== STORY CARDS - ROW 2 ==================== -->
  <!-- Card 4: ATM to QR Code -->
  <g transform="translate(80, 1270)">
    <rect width="420" height="220" rx="16" fill="url(#cardGrad4)"/>
    <rect x="30" y="24" width="100" height="26" rx="13" fill="#a855f7" opacity="0.2"/>
    <text x="40" y="42" font-size="11" font-weight="600" fill="#c084fc">Infrastructure</text>
    <text x="30" y="82" font-size="22" font-weight="800" fill="#ffffff" letter-spacing="-0.5">ATM to QR Code</text>
    <text x="30" y="112" font-size="13" fill="#64748b">ATMs declining. QR codes exploding.</text>
    <text x="30" y="132" font-size="13" fill="#64748b">India's infrastructure transformation.</text>
    <!-- Crossing lines -->
    <line x1="30" y1="195" x2="350" y2="160" stroke="#a855f7" stroke-width="2" opacity="0.6"/>
    <line x1="30" y1="160" x2="350" y2="195" stroke="#ef4444" stroke-width="2" opacity="0.4"/>
    <text x="355" y="163" font-size="10" fill="#a855f7">QR</text>
    <text x="355" y="198" font-size="10" fill="#ef4444">ATM</text>
  </g>

  <!-- Card 5: Who Owns UPI? -->
  <g transform="translate(520, 1270)">
    <rect width="420" height="220" rx="16" fill="url(#cardGrad1)"/>
    <rect x="30" y="24" width="96" height="26" rx="13" fill="#06b6d4" opacity="0.2"/>
    <text x="40" y="42" font-size="11" font-weight="600" fill="#22d3ee">Market Share</text>
    <text x="30" y="82" font-size="22" font-weight="800" fill="#ffffff" letter-spacing="-0.5">Who Owns UPI?</text>
    <text x="30" y="112" font-size="13" fill="#64748b">Bank-wise UPI market share.</text>
    <text x="30" y="132" font-size="13" fill="#64748b">A treemap breakdown.</text>
    <!-- Mini treemap -->
    <rect x="30" y="150" width="160" height="50" rx="4" fill="#06b6d4" opacity="0.5"/>
    <rect x="195" y="150" width="100" height="50" rx="4" fill="#3b82f6" opacity="0.4"/>
    <rect x="300" y="150" width="80" height="50" rx="4" fill="#8b5cf6" opacity="0.3"/>
    <rect x="30" y="205" width="120" height="0" rx="4" fill="#10b981" opacity="0.3"/>
    <text x="80" y="180" font-size="11" font-weight="600" fill="#ffffff" text-anchor="middle">PhonePe</text>
    <text x="235" y="180" font-size="10" fill="#ffffff" text-anchor="middle">GPay</text>
    <text x="335" y="180" font-size="9" fill="#ffffff" text-anchor="middle">Paytm</text>
  </g>

  <!-- Card 6: The Cheque is Dead -->
  <g transform="translate(960, 1270)">
    <rect width="400" height="220" rx="16" fill="url(#cardGrad2)"/>
    <rect x="30" y="24" width="64" height="26" rx="13" fill="#10b981" opacity="0.2"/>
    <text x="40" y="42" font-size="11" font-weight="600" fill="#34d399">Trends</text>
    <text x="30" y="82" font-size="22" font-weight="800" fill="#ffffff" letter-spacing="-0.5">The Cheque is Dead</text>
    <text x="30" y="112" font-size="13" fill="#64748b">CTS decline overlaid with</text>
    <text x="30" y="132" font-size="13" fill="#64748b">UPI and NEFT growth.</text>
    <!-- Declining line -->
    <line x1="30" y1="155" x2="330" y2="195" stroke="#ef4444" stroke-width="2" opacity="0.5" stroke-dasharray="4,4"/>
    <path d="M 30,195 Q 180,185 330,155" stroke="#10b981" stroke-width="2" fill="none" opacity="0.6"/>
    <text x="335" y="198" font-size="9" fill="#ef4444">Cheque</text>
    <text x="335" y="158" font-size="9" fill="#10b981">UPI</text>
  </g>

  <!-- ==================== SECOND THEME SECTION ==================== -->
  <text x="80" y="1580" font-size="13" font-weight="600" fill="#f59e0b" letter-spacing="2">DEEP DIVES</text>
  <text x="80" y="1620" font-size="36" font-weight="800" fill="#0f172a" letter-spacing="-1">India's Money Story</text>
  <text x="80" y="1650" font-size="16" fill="#64748b">Seven decades of economic transformation, one chart at a time.</text>

  <!-- Card 7: Household Savings Collapse -->
  <g transform="translate(80, 1690)">
    <rect width="660" height="320" rx="16" fill="url(#cardGrad3)"/>
    <rect x="30" y="24" width="64" height="26" rx="13" fill="#ef4444" opacity="0.2"/>
    <text x="40" y="42" font-size="11" font-weight="600" fill="#f87171">Savings</text>
    <text x="30" y="85" font-size="26" font-weight="800" fill="#ffffff" letter-spacing="-0.5">The Savings Collapse</text>
    <text x="30" y="115" font-size="14" fill="#94a3b8">Household financial savings fell from 11% to 5.3% of GDP.</text>
    <text x="30" y="138" font-size="14" fill="#94a3b8">Where did the money go?</text>
    <!-- Declining area chart -->
    <path d="M 30,280 L 30,200 130,205 230,210 330,220 430,240 530,260 600,270 600,280 Z" fill="#ef4444" opacity="0.15"/>
    <path d="M 30,200 L 130,205 230,210 330,220 430,240 530,260 600,270" stroke="#ef4444" stroke-width="2.5" fill="none" opacity="0.6"/>
    <text x="30" y="195" font-size="18" font-weight="700" fill="#ef4444">11%</text>
    <text x="560" y="265" font-size="18" font-weight="700" fill="#ef4444">5.3%</text>
    <text x="30" y="298" font-size="11" fill="#475569">2018</text>
    <text x="580" y="298" font-size="11" fill="#475569">2025</text>
  </g>

  <!-- Card 8: Inflation vs Reality -->
  <g transform="translate(760, 1690)">
    <rect width="600" height="320" rx="16" fill="url(#cardGrad1)"/>
    <rect x="30" y="24" width="60" height="26" rx="13" fill="#f59e0b" opacity="0.2"/>
    <text x="40" y="42" font-size="11" font-weight="600" fill="#fbbf24">Prices</text>
    <text x="30" y="85" font-size="26" font-weight="800" fill="#ffffff" letter-spacing="-0.5">Mind the Gap</text>
    <text x="30" y="115" font-size="14" fill="#94a3b8">What people think inflation is vs what</text>
    <text x="30" y="138" font-size="14" fill="#94a3b8">it actually is. A persistent 4-5pp gap.</text>
    <!-- Two diverging lines -->
    <path d="M 30,250 Q 150,245 270,220 Q 390,200 530,190" stroke="#f59e0b" stroke-width="2" fill="none" opacity="0.7"/>
    <path d="M 30,220 Q 150,200 270,170 Q 390,145 530,130" stroke="#ef4444" stroke-width="2" fill="none" opacity="0.7"/>
    <!-- Gap annotation -->
    <line x1="530" y1="130" x2="530" y2="190" stroke="#64748b" stroke-width="1" stroke-dasharray="3,3"/>
    <text x="540" y="155" font-size="11" font-weight="600" fill="#64748b">4-5pp gap</text>
    <text x="540" y="128" font-size="10" fill="#ef4444">Perceived</text>
    <text x="540" y="198" font-size="10" fill="#f59e0b">Actual CPI</text>
    <text x="30" y="298" font-size="11" fill="#475569">2005</text>
    <text x="510" y="298" font-size="11" fill="#475569">2025</text>
  </g>

  <!-- ==================== THIRD THEME ==================== -->
  <text x="80" y="2100" font-size="13" font-weight="600" fill="#10b981" letter-spacing="2">CREDIT &amp; BANKING</text>
  <text x="80" y="2140" font-size="36" font-weight="800" fill="#0f172a" letter-spacing="-1">Where Does India's Money Flow?</text>
  <text x="80" y="2170" font-size="16" fill="#64748b">Follow the rupee from deposits to loans, savings to markets.</text>

  <!-- Card 9: Credit Boom -->
  <g transform="translate(80, 2210)">
    <rect width="440" height="240" rx="16" fill="url(#cardGrad4)"/>
    <rect x="30" y="24" width="56" height="26" rx="13" fill="#a855f7" opacity="0.2"/>
    <text x="40" y="42" font-size="11" font-weight="600" fill="#c084fc">Credit</text>
    <text x="30" y="82" font-size="22" font-weight="800" fill="#ffffff">The Credit Boom</text>
    <text x="30" y="112" font-size="13" fill="#64748b">Personal loans exploding: housing,</text>
    <text x="30" y="132" font-size="13" fill="#64748b">vehicles, credit cards.</text>
    <!-- Stacked bars -->
    <rect x="30" y="155" width="30" height="60" rx="2" fill="#a855f7" opacity="0.3"/>
    <rect x="70" y="145" width="30" height="70" rx="2" fill="#a855f7" opacity="0.4"/>
    <rect x="110" y="130" width="30" height="85" rx="2" fill="#a855f7" opacity="0.5"/>
    <rect x="150" y="110" width="30" height="105" rx="2" fill="#a855f7" opacity="0.6"/>
    <rect x="190" y="85" width="30" height="130" rx="2" fill="#a855f7" opacity="0.7"/>
    <rect x="230" y="60" width="30" height="155" rx="2" fill="#a855f7" opacity="0.8"/>
  </g>

  <!-- Card 10: Forex Fortress -->
  <g transform="translate(540, 2210)">
    <rect width="440" height="240" rx="16" fill="url(#cardGrad2)"/>
    <rect x="30" y="24" width="72" height="26" rx="13" fill="#10b981" opacity="0.2"/>
    <text x="40" y="42" font-size="11" font-weight="600" fill="#34d399">Reserves</text>
    <text x="30" y="82" font-size="22" font-weight="800" fill="#ffffff">Forex Fortress</text>
    <text x="30" y="112" font-size="13" fill="#64748b">$5B in 1991 crisis to $688B today.</text>
    <text x="30" y="132" font-size="13" fill="#64748b">India's insurance policy.</text>
    <!-- Rising curve -->
    <path d="M 30,215 Q 100,213 170,210 Q 250,200 300,170 Q 350,130 380,80 Q 395,50 400,30" stroke="#10b981" stroke-width="2.5" fill="none" opacity="0.7"/>
    <text x="30" y="210" font-size="10" fill="#64748b">$5B</text>
    <text x="370" y="25" font-size="12" font-weight="700" fill="#10b981">$688B</text>
  </g>

  <!-- Card 11: Sector Heatmap -->
  <g transform="translate(1000, 2210)">
    <rect width="360" height="240" rx="16" fill="url(#cardGrad1)"/>
    <rect x="30" y="24" width="72" height="26" rx="13" fill="#06b6d4" opacity="0.2"/>
    <text x="40" y="42" font-size="11" font-weight="600" fill="#22d3ee">Sectors</text>
    <text x="30" y="82" font-size="22" font-weight="800" fill="#ffffff">Credit Heatmap</text>
    <text x="30" y="112" font-size="13" fill="#64748b">Where bank credit flows:</text>
    <text x="30" y="132" font-size="13" fill="#64748b">sector by sector, month by month.</text>
    <!-- Mini heatmap grid -->
    <g transform="translate(30, 150)">
      <rect x="0" y="0" width="40" height="18" rx="2" fill="#ef4444" opacity="0.8"/>
      <rect x="45" y="0" width="40" height="18" rx="2" fill="#ef4444" opacity="0.6"/>
      <rect x="90" y="0" width="40" height="18" rx="2" fill="#f59e0b" opacity="0.5"/>
      <rect x="135" y="0" width="40" height="18" rx="2" fill="#10b981" opacity="0.4"/>
      <rect x="180" y="0" width="40" height="18" rx="2" fill="#10b981" opacity="0.7"/>
      <rect x="225" y="0" width="40" height="18" rx="2" fill="#10b981" opacity="0.9"/>

      <rect x="0" y="22" width="40" height="18" rx="2" fill="#3b82f6" opacity="0.3"/>
      <rect x="45" y="22" width="40" height="18" rx="2" fill="#3b82f6" opacity="0.5"/>
      <rect x="90" y="22" width="40" height="18" rx="2" fill="#3b82f6" opacity="0.6"/>
      <rect x="135" y="22" width="40" height="18" rx="2" fill="#3b82f6" opacity="0.7"/>
      <rect x="180" y="22" width="40" height="18" rx="2" fill="#3b82f6" opacity="0.8"/>
      <rect x="225" y="22" width="40" height="18" rx="2" fill="#3b82f6" opacity="0.9"/>

      <rect x="0" y="44" width="40" height="18" rx="2" fill="#a855f7" opacity="0.4"/>
      <rect x="45" y="44" width="40" height="18" rx="2" fill="#a855f7" opacity="0.3"/>
      <rect x="90" y="44" width="40" height="18" rx="2" fill="#a855f7" opacity="0.5"/>
      <rect x="135" y="44" width="40" height="18" rx="2" fill="#a855f7" opacity="0.6"/>
      <rect x="180" y="44" width="40" height="18" rx="2" fill="#a855f7" opacity="0.4"/>
      <rect x="225" y="44" width="40" height="18" rx="2" fill="#a855f7" opacity="0.7"/>
    </g>
  </g>

  <!-- ==================== FOOTER ==================== -->
  <rect y="2560" width="1440" height="240" fill="#0f172a"/>
  <text x="80" y="2620" font-size="20" font-weight="800" fill="#ffffff">India in Charts</text>
  <text x="80" y="2650" font-size="14" fill="#64748b">Data sourced from the Reserve Bank of India.</text>
  <text x="80" y="2674" font-size="14" fill="#64748b">Updated automatically. Open source.</text>

  <text x="600" y="2620" font-size="13" font-weight="600" fill="#94a3b8">Stories</text>
  <text x="600" y="2645" font-size="13" fill="#64748b">Payments Revolution</text>
  <text x="600" y="2665" font-size="13" fill="#64748b">India's Money Story</text>
  <text x="600" y="2685" font-size="13" fill="#64748b">Credit &amp; Banking</text>

  <text x="850" y="2620" font-size="13" font-weight="600" fill="#94a3b8">Resources</text>
  <text x="850" y="2645" font-size="13" fill="#64748b">About the Data</text>
  <text x="850" y="2665" font-size="13" fill="#64748b">Methodology</text>
  <text x="850" y="2685" font-size="13" fill="#64748b">GitHub</text>

  <text x="1100" y="2620" font-size="13" font-weight="600" fill="#94a3b8">Updates</text>
  <text x="1100" y="2645" font-size="13" fill="#64748b">Last updated: Apr 9, 2026</text>
  <text x="1100" y="2665" font-size="13" fill="#64748b">20 datasets tracked</text>
  <text x="1100" y="2685" font-size="13" fill="#64748b">Automated daily</text>

  <line x1="80" y1="2720" x2="1360" y2="2720" stroke="#1e293b" stroke-width="1"/>
  <text x="80" y="2750" font-size="12" fill="#475569">Built with data from rbi.org.in. Not affiliated with the Reserve Bank of India.</text>
</svg>